<svg width="96" height="96" xmlns="http://www.w3.org/2000/svg" xmlns:xlink="http://www.w3.org/1999/xlink" xml:space="preserve" overflow="hidden"><defs><clipPath id="clip0"><rect x="48" y="27" width="96" height="96"/></clipPath></defs><g clip-path="url(#clip0)" transform="translate(-48 -27)"><path d="M100.75 66.05 91.94 66.05C91.1116 66.05 90.44 66.7216 90.44 67.55 90.44 68.3784 91.1116 69.05 91.94 69.05L100.75 69.05C101.578 69.05 102.25 68.3784 102.25 67.55 102.25 66.7216 101.578 66.05 100.75 66.05Z"/><path d="M96.34 74C98.0301 73.9984 99.4294 72.6865 99.54 71L93.15 71C93.2555 72.6849 94.6518 73.998 96.34 74Z"/><path d="M96.34 37.44 96.34 37.44C89.356 37.4877 83.6847 43.0969 83.56 50.08L83.56 50.52C83.5939 52.0537 83.8951 53.5698 84.45 55 84.9668 56.3361 85.7187 57.5689 86.67 58.64 87.8559 60.1376 88.8627 61.7687 89.67 63.5 89.8378 63.8331 90.1771 64.0451 90.55 64.05L102.15 64.05C102.523 64.0451 102.862 63.8331 103.03 63.5 103.838 61.7691 104.845 60.1381 106.03 58.64 106.975 57.5662 107.723 56.334 108.24 55 108.78 53.5828 109.081 52.0857 109.13 50.57L109.13 50.13C109.027 43.1258 103.345 37.4882 96.34 37.44ZM106.18 50.44C106.139 51.6207 105.902 52.7865 105.48 53.89 105.086 54.8809 104.521 55.7948 103.81 56.59 102.687 57.9516 101.723 59.4381 100.94 61.02L91.75 61.02C90.9629 59.4379 89.9966 57.9514 88.87 56.59 88.1625 55.7944 87.6006 54.8805 87.21 53.89 86.788 52.7865 86.5514 51.6207 86.51 50.44L86.51 50.08C86.6023 44.7077 90.967 40.3918 96.34 40.36L96.34 40.36C101.715 40.3917 106.082 44.7061 106.18 50.08Z"/><path d="M91.52 53.33 96.81 43 96.81 48.98 102.3 47.89 96.81 58 96.81 52.13 91.52 53.33Z"/><path d="M124.84 80.53C124.84 84.8268 121.357 88.31 117.06 88.31 112.763 88.31 109.28 84.8268 109.28 80.53 109.28 76.2332 112.763 72.75 117.06 72.75 121.357 72.75 124.84 76.2332 124.84 80.53Z"/><path d="M83.34 80.53C83.34 84.8268 79.8568 88.31 75.56 88.31 71.2632 88.31 67.78 84.8268 67.78 80.53 67.78 76.2332 71.2632 72.75 75.56 72.75 79.8568 72.75 83.34 76.2332 83.34 80.53Z"/><path d="M131.06 95.05C128.819 93.3046 126.226 92.0662 123.46 91.42 121.379 90.8128 119.228 90.4767 117.06 90.42 114.887 90.4152 112.728 90.7527 110.66 91.42 108.589 91.972 106.608 92.8208 104.78 93.94 104.66 94.08 104.55 94.22 104.42 94.35 107.328 95.1327 110.049 96.4931 112.42 98.35 114.291 99.7156 115.383 101.904 115.35 104.22L115.35 106 132.62 106 132.62 98.17C132.65 96.9355 132.066 95.7666 131.06 95.05Z"/><path d="M77.29 104.22C77.2922 101.97 78.3237 99.8442 80.09 98.45L80.21 98.35 80.34 98.26C82.7382 96.554 85.3909 95.2378 88.2 94.36 88 94.15 87.82 93.93 87.63 93.71 85.8726 92.6812 83.9766 91.91 82 91.42 79.9187 90.812 77.7675 90.4758 75.6 90.42 73.4274 90.4159 71.2678 90.7534 69.2 91.42 66.4725 92.1725 63.8996 93.4015 61.6 95.05 60.615 95.7884 60.0248 96.9392 60 98.17L60 106 77.29 106Z"/><path d="M80.75 112 80.75 104.22C80.7547 102.996 81.332 101.845 82.31 101.11 84.6054 99.4545 87.1797 98.2249 89.91 97.48 91.9767 96.8088 94.1371 96.4712 96.31 96.48 98.478 96.5309 100.63 96.8672 102.71 97.48 105.481 98.1196 108.079 99.3587 110.32 101.11 111.322 101.825 111.902 102.99 111.87 104.22L111.87 112Z"/><path d="M104.09 86.58C104.09 90.8768 100.607 94.36 96.31 94.36 92.0132 94.36 88.53 90.8768 88.53 86.58 88.53 82.2832 92.0132 78.8 96.31 78.8 100.607 78.8 104.09 82.2832 104.09 86.58Z"/></g></svg>