<svg width="96" height="96" xmlns="http://www.w3.org/2000/svg" xmlns:xlink="http://www.w3.org/1999/xlink" xml:space="preserve" overflow="hidden"><defs><clipPath id="clip0"><rect x="51" y="315" width="96" height="96"/></clipPath></defs><g clip-path="url(#clip0)" transform="translate(-51 -315)"><path d="M95.9 387.4C95.4 387.4 94.8 387.3 94.4 386.9 93.6 386.2 93.5 384.9 94.2 384.1L98.1 379.6C98.8 378.8 100.1 378.7 100.9 379.4 101.7 380.1 101.8 381.4 101.1 382.2L97.2 386.7C96.9 387.1 96.4 387.3 95.9 387.4Z"/><path d="M89.8 385.1C89.1 385.2 88.5 385 87.9 384.5 86.9 383.6 86.8 382 87.7 381L92.3 375.7C93.2 374.7 94.8 374.6 95.8 375.5 96.8 376.4 96.9 378 96 379L91.4 384.3C91 384.8 90.4 385.1 89.8 385.1Z"/><path d="M83.5 381.4C82.7 381.5 81.9 381.2 81.3 380.7 80.1 379.6 79.9 377.7 81 376.5L85.6 371.2C86.7 370 88.6 369.8 89.8 370.9 91 372 91.2 373.9 90.1 375.1L85.5 380.4C85 381 84.2 381.4 83.5 381.4Z"/><path d="M76.2 377.7C75.4 377.8 74.6 377.5 74 377 72.8 375.9 72.6 374 73.7 372.8L79 366.8C80.1 365.6 82 365.4 83.2 366.5 84.4 367.6 84.6 369.5 83.5 370.7L78.2 376.7C77.6 377.3 76.9 377.6 76.2 377.7Z"/><path d="M55.6 355.7 63.3 360.4C64.2 361 65.5 360.7 66 359.7L75.3 344.3C75.9 343.4 75.6 342.1 74.6 341.6L67 336.9 55.6 355.7Z"/><path d="M120.4 368.8 104.3 355 103.2 354 96.3 361.9C95.3 363.1 93.9 363.8 92.3 363.9 92.1 363.9 91.9 363.9 91.8 363.9 90.3 363.9 88.9 363.4 87.9 362.4 85.4 360.2 85.2 356.4 87.3 353.9L93.2 347.1C88.6 346.5 82.7 348.9 76.6 345.9L67.9 360.3 74.7 368.2 77.3 365.2C78.2 364.1 79.6 363.5 81.1 363.5L81.1 363.5C82.3 363.5 83.5 363.9 84.4 364.7 85.5 365.6 86 366.9 86.1 368.3 86.6 368.1 87.2 368 87.8 368 89 368 90.2 368.4 91.1 369.2 92.2 370.2 92.8 371.5 92.8 372.9 93.2 372.8 93.7 372.7 94.1 372.7L94.1 372.7C95.2 372.7 96.2 373.1 97.1 373.8 98 374.6 98.5 375.7 98.6 376.9 98.9 376.8 99.3 376.7 99.7 376.7L99.7 376.7C100.7 376.7 101.6 377 102.3 377.7 103.1 378.4 103.6 379.4 103.7 380.4 103.8 381.5 103.4 382.5 102.7 383.3L99.3 387.2 100.7 388.3C101.4 388.7 102.2 389 103.1 388.9 105.3 388.7 106.9 386.8 106.7 384.6 106.7 384.6 106.7 384.5 106.7 384.5 107 384.6 107.4 384.6 107.7 384.6 109.9 384.4 111.5 382.5 111.3 380.3 111.3 380.3 111.3 380.2 111.3 380.2 111.6 380.3 112 380.3 112.3 380.3 114.5 380.1 116.1 378.2 115.9 376 115.9 375.8 115.8 375.6 115.8 375.4 116.4 375.7 117.1 375.9 117.9 375.8 120.1 375.6 121.7 373.7 121.5 371.5 121.6 370.4 121.1 369.5 120.4 368.8Z"/><path d="M142.4 355.7 134.7 360.4C133.8 361 132.5 360.7 132 359.7L122.7 344.3C122.1 343.4 122.4 342.1 123.4 341.6L131.1 336.9 142.4 355.7Z"/><path d="M121.5 346.3C113.2 349.3 107.2 346.4 100.5 345.1 100.4 345.1 100 345 100 345 98.8 344.9 97.5 345.3 96.6 346.3L88.7 355.3C87.2 357 87.4 359.5 89.1 360.9 90 361.6 91 362 92.1 361.9 93.1 361.8 94.1 361.4 94.8 360.5 94.8 360.5 103 351.1 103 351.1L121.7 367.2 121.7 367.2 121.7 367.2C122.2 367.7 122.4 367.9 122.8 368.5L130 360.2 121.5 346.3Z"/></g></svg>