<svg width="96" height="96" xmlns="http://www.w3.org/2000/svg" xmlns:xlink="http://www.w3.org/1999/xlink" xml:space="preserve" overflow="hidden"><defs><clipPath id="clip0"><rect x="50" y="157" width="96" height="96"/></clipPath></defs><g clip-path="url(#clip0)" transform="translate(-50 -157)"><path d="M132 221 64 221 64 177 132 177 132 221ZM134 171 62 171C59.8 171 58 172.8 58 175L58 223C58 225.2 59.8 227 62 227L90 227 90 233 80 233 80 239 116 239 116 233 106 233 106 227 134 227C136.2 227 138 225.2 138 223L138 175C138 172.8 136.2 171 134 171Z"/></g></svg>